<mxfile host="app.diagrams.net" agent="Mozilla/5.0 (X11; Linux x86_64; rv:140.0) Gecko/20100101 Firefox/140.0" version="28.2.8">
  <diagram id="C5RBs43oDa-KdzZeNtuy" name="Page-1">
    <mxGraphModel dx="1226" dy="694" grid="1" gridSize="10" guides="1" tooltips="1" connect="1" arrows="1" fold="1" page="1" pageScale="1" pageWidth="827" pageHeight="1169" math="0" shadow="0">
      <root>
        <mxCell id="WIyWlLk6GJQsqaUBKTNV-0" />
        <mxCell id="WIyWlLk6GJQsqaUBKTNV-1" parent="WIyWlLk6GJQsqaUBKTNV-0" />
        <mxCell id="V93L6pqN39d7mlnfrg9G-11" style="edgeStyle=orthogonalEdgeStyle;rounded=0;orthogonalLoop=1;jettySize=auto;html=1;exitX=0.5;exitY=1;exitDx=0;exitDy=0;exitPerimeter=0;entryX=0.5;entryY=0;entryDx=0;entryDy=0;" parent="WIyWlLk6GJQsqaUBKTNV-1" source="V93L6pqN39d7mlnfrg9G-1" target="V93L6pqN39d7mlnfrg9G-3" edge="1">
          <mxGeometry relative="1" as="geometry" />
        </mxCell>
        <mxCell id="V93L6pqN39d7mlnfrg9G-1" value="Inicio" style="strokeWidth=1;html=1;shape=mxgraph.flowchart.terminator;whiteSpace=wrap;" parent="WIyWlLk6GJQsqaUBKTNV-1" vertex="1">
          <mxGeometry x="364" y="30" width="60" height="30" as="geometry" />
        </mxCell>
        <mxCell id="V93L6pqN39d7mlnfrg9G-2" value="Fin" style="strokeWidth=1;html=1;shape=mxgraph.flowchart.terminator;whiteSpace=wrap;" parent="WIyWlLk6GJQsqaUBKTNV-1" vertex="1">
          <mxGeometry x="364" y="590" width="60" height="30" as="geometry" />
        </mxCell>
        <mxCell id="V93L6pqN39d7mlnfrg9G-12" style="edgeStyle=orthogonalEdgeStyle;rounded=0;orthogonalLoop=1;jettySize=auto;html=1;exitX=0.5;exitY=1;exitDx=0;exitDy=0;entryX=0.5;entryY=0;entryDx=0;entryDy=0;" parent="WIyWlLk6GJQsqaUBKTNV-1" source="V93L6pqN39d7mlnfrg9G-3" target="V93L6pqN39d7mlnfrg9G-4" edge="1">
          <mxGeometry relative="1" as="geometry" />
        </mxCell>
        <mxCell id="V93L6pqN39d7mlnfrg9G-3" value="&lt;i&gt;primero&lt;/i&gt;&amp;nbsp;⟵ 2" style="rounded=1;whiteSpace=wrap;html=1;fontSize=12;glass=0;strokeWidth=1;shadow=0;" parent="WIyWlLk6GJQsqaUBKTNV-1" vertex="1">
          <mxGeometry x="334" y="80" width="120" height="40" as="geometry" />
        </mxCell>
        <mxCell id="V93L6pqN39d7mlnfrg9G-4" value="&lt;i&gt;ultimo&lt;/i&gt; ⟵ 25" style="rounded=1;whiteSpace=wrap;html=1;fontSize=12;glass=0;strokeWidth=1;shadow=0;" parent="WIyWlLk6GJQsqaUBKTNV-1" vertex="1">
          <mxGeometry x="334" y="140" width="120" height="40" as="geometry" />
        </mxCell>
        <mxCell id="dsIr9WgvCWpWG1qWFjOV-4" style="edgeStyle=orthogonalEdgeStyle;rounded=0;orthogonalLoop=1;jettySize=auto;html=1;exitX=0.5;exitY=1;exitDx=0;exitDy=0;entryX=0.5;entryY=0;entryDx=0;entryDy=0;" parent="WIyWlLk6GJQsqaUBKTNV-1" source="V93L6pqN39d7mlnfrg9G-6" target="dsIr9WgvCWpWG1qWFjOV-0" edge="1">
          <mxGeometry relative="1" as="geometry" />
        </mxCell>
        <mxCell id="V93L6pqN39d7mlnfrg9G-6" value="&lt;i&gt;i&lt;/i&gt; ⟵ &lt;i&gt;primero&lt;/i&gt;" style="rounded=1;whiteSpace=wrap;html=1;fontSize=12;glass=0;strokeWidth=1;shadow=0;" parent="WIyWlLk6GJQsqaUBKTNV-1" vertex="1">
          <mxGeometry x="334" y="260" width="120" height="40" as="geometry" />
        </mxCell>
        <mxCell id="V93L6pqN39d7mlnfrg9G-9" style="edgeStyle=orthogonalEdgeStyle;rounded=0;orthogonalLoop=1;jettySize=auto;html=1;exitX=1;exitY=0.5;exitDx=0;exitDy=0;exitPerimeter=0;entryX=1;entryY=0.5;entryDx=0;entryDy=0;entryPerimeter=0;" parent="WIyWlLk6GJQsqaUBKTNV-1" source="V93L6pqN39d7mlnfrg9G-7" target="V93L6pqN39d7mlnfrg9G-2" edge="1">
          <mxGeometry relative="1" as="geometry">
            <Array as="points">
              <mxPoint x="494" y="380" />
              <mxPoint x="494" y="605" />
            </Array>
          </mxGeometry>
        </mxCell>
        <mxCell id="V93L6pqN39d7mlnfrg9G-10" value="Sí" style="edgeLabel;html=1;align=center;verticalAlign=middle;resizable=0;points=[];labelBackgroundColor=none;" parent="V93L6pqN39d7mlnfrg9G-9" vertex="1" connectable="0">
          <mxGeometry x="-0.6261" y="1" relative="1" as="geometry">
            <mxPoint x="-41" y="-24" as="offset" />
          </mxGeometry>
        </mxCell>
        <mxCell id="V93L6pqN39d7mlnfrg9G-17" style="edgeStyle=orthogonalEdgeStyle;rounded=0;orthogonalLoop=1;jettySize=auto;html=1;exitX=0.5;exitY=1;exitDx=0;exitDy=0;exitPerimeter=0;entryX=0.5;entryY=0;entryDx=0;entryDy=0;" parent="WIyWlLk6GJQsqaUBKTNV-1" source="V93L6pqN39d7mlnfrg9G-7" target="V93L6pqN39d7mlnfrg9G-15" edge="1">
          <mxGeometry relative="1" as="geometry" />
        </mxCell>
        <mxCell id="V93L6pqN39d7mlnfrg9G-26" value="No" style="edgeLabel;html=1;align=center;verticalAlign=middle;resizable=0;points=[];labelBackgroundColor=none;" parent="V93L6pqN39d7mlnfrg9G-17" vertex="1" connectable="0">
          <mxGeometry x="0.27" y="1" relative="1" as="geometry">
            <mxPoint x="-15" y="-15.33" as="offset" />
          </mxGeometry>
        </mxCell>
        <mxCell id="V93L6pqN39d7mlnfrg9G-7" value="&lt;i&gt;i = ultimo&lt;/i&gt;" style="strokeWidth=1;html=1;shape=mxgraph.flowchart.decision;whiteSpace=wrap;" parent="WIyWlLk6GJQsqaUBKTNV-1" vertex="1">
          <mxGeometry x="344" y="350" width="100" height="60" as="geometry" />
        </mxCell>
        <mxCell id="V93L6pqN39d7mlnfrg9G-23" style="edgeStyle=orthogonalEdgeStyle;rounded=0;orthogonalLoop=1;jettySize=auto;html=1;exitX=0.5;exitY=1;exitDx=0;exitDy=0;entryX=0.5;entryY=0;entryDx=0;entryDy=0;" parent="WIyWlLk6GJQsqaUBKTNV-1" source="V93L6pqN39d7mlnfrg9G-15" target="V93L6pqN39d7mlnfrg9G-18" edge="1">
          <mxGeometry relative="1" as="geometry" />
        </mxCell>
        <mxCell id="V93L6pqN39d7mlnfrg9G-15" value="&lt;i&gt;suma&lt;/i&gt;&amp;nbsp;⟵ suma + &lt;i&gt;i&lt;/i&gt;" style="rounded=1;whiteSpace=wrap;html=1;fontSize=12;glass=0;strokeWidth=1;shadow=0;" parent="WIyWlLk6GJQsqaUBKTNV-1" vertex="1">
          <mxGeometry x="334" y="440" width="120" height="40" as="geometry" />
        </mxCell>
        <mxCell id="dsIr9WgvCWpWG1qWFjOV-6" style="edgeStyle=orthogonalEdgeStyle;rounded=0;orthogonalLoop=1;jettySize=auto;html=1;exitX=0.5;exitY=1;exitDx=0;exitDy=0;entryX=0;entryY=0.5;entryDx=0;entryDy=0;" parent="WIyWlLk6GJQsqaUBKTNV-1" source="V93L6pqN39d7mlnfrg9G-18" target="dsIr9WgvCWpWG1qWFjOV-0" edge="1">
          <mxGeometry relative="1" as="geometry">
            <Array as="points">
              <mxPoint x="394" y="570" />
              <mxPoint x="310" y="570" />
              <mxPoint x="310" y="325" />
            </Array>
          </mxGeometry>
        </mxCell>
        <mxCell id="V93L6pqN39d7mlnfrg9G-18" value="&lt;i&gt;i&lt;/i&gt; ⟵ &lt;i&gt;i&lt;/i&gt; + 1" style="rounded=1;whiteSpace=wrap;html=1;fontSize=12;glass=0;strokeWidth=1;shadow=0;" parent="WIyWlLk6GJQsqaUBKTNV-1" vertex="1">
          <mxGeometry x="334" y="500" width="120" height="40" as="geometry" />
        </mxCell>
        <mxCell id="dsIr9WgvCWpWG1qWFjOV-5" style="edgeStyle=orthogonalEdgeStyle;rounded=0;orthogonalLoop=1;jettySize=auto;html=1;exitX=0.5;exitY=1;exitDx=0;exitDy=0;entryX=0.5;entryY=0;entryDx=0;entryDy=0;entryPerimeter=0;" parent="WIyWlLk6GJQsqaUBKTNV-1" source="dsIr9WgvCWpWG1qWFjOV-0" target="V93L6pqN39d7mlnfrg9G-7" edge="1">
          <mxGeometry relative="1" as="geometry" />
        </mxCell>
        <mxCell id="dsIr9WgvCWpWG1qWFjOV-0" value="" style="ellipse;fillColor=#000000;strokeColor=none;" parent="WIyWlLk6GJQsqaUBKTNV-1" vertex="1">
          <mxGeometry x="389" y="320" width="10" height="10" as="geometry" />
        </mxCell>
        <mxCell id="8jmPE76rBbeIZTa0Z0L5-0" value="&lt;i&gt;suma&lt;/i&gt;&amp;nbsp;⟵ 0" style="rounded=1;whiteSpace=wrap;html=1;fontSize=12;glass=0;strokeWidth=1;shadow=0;" vertex="1" parent="WIyWlLk6GJQsqaUBKTNV-1">
          <mxGeometry x="334" y="200" width="120" height="40" as="geometry" />
        </mxCell>
        <mxCell id="8jmPE76rBbeIZTa0Z0L5-1" style="edgeStyle=orthogonalEdgeStyle;rounded=0;orthogonalLoop=1;jettySize=auto;html=1;exitX=0.5;exitY=1;exitDx=0;exitDy=0;entryX=0.5;entryY=0;entryDx=0;entryDy=0;" edge="1" parent="WIyWlLk6GJQsqaUBKTNV-1" source="V93L6pqN39d7mlnfrg9G-4" target="8jmPE76rBbeIZTa0Z0L5-0">
          <mxGeometry relative="1" as="geometry">
            <mxPoint x="404" y="130" as="sourcePoint" />
            <mxPoint x="404" y="150" as="targetPoint" />
          </mxGeometry>
        </mxCell>
        <mxCell id="8jmPE76rBbeIZTa0Z0L5-2" style="edgeStyle=orthogonalEdgeStyle;rounded=0;orthogonalLoop=1;jettySize=auto;html=1;exitX=0.5;exitY=1;exitDx=0;exitDy=0;entryX=0.5;entryY=0;entryDx=0;entryDy=0;" edge="1" parent="WIyWlLk6GJQsqaUBKTNV-1" source="8jmPE76rBbeIZTa0Z0L5-0" target="V93L6pqN39d7mlnfrg9G-6">
          <mxGeometry relative="1" as="geometry">
            <mxPoint x="404" y="252" as="sourcePoint" />
            <mxPoint x="404" y="272" as="targetPoint" />
          </mxGeometry>
        </mxCell>
      </root>
    </mxGraphModel>
  </diagram>
</mxfile>
